# xmcd
#
# Track frame offsets:
#	150
#	24974
#	45171
#	69932
#	87996
#	103796
#	116870
#	137090
#	149927
#	160824
#	174409
#	186380
#	196462
#	210059
#	222419
#	235117
#	247218
#	261308
#	272016
#
# Disc length: 3852 seconds
#
# Revision: 0
# Processed by: cddbd v1.4PL0 Copyright (c) Steve Scherf et al.
# Submitted via: EZCDDA 4.3.3.2
#
DISCID=1c0f0a13
DTITLE=Cuba. Por La Musica, Siempre - Cuba. Por La Musica, Siempre CD2
DYEAR=1900
DGENRE=
TTITLE0=Son Cubano [Mario Bauza And His Afro-Cuban Orchestra]
TTITLE1=Hasta Siempre [Soledad Bravo]
TTITLE2=Changui Clave [Revé Y Su Charangon]
TTITLE3=Yo Soy El Punto Cubano [Celina Gonzales]
TTITLE4=Santa Barbara [Celina Gonzales]
TTITLE5=Catalina [Irakere]
TTITLE6=Cantos Lyesa [Lazaro Ros and Olorun]
TTITLE7=Me Gusta La Rumba [Los Cubaztecas]
TTITLE8=Cabeça Hinchada [Pancho Cantaneo y los Cubaztecas]
TTITLE9=Salsa Mania [Tropical Orchestra]
TTITLE10=Moliendo Cafe [Pancho Cantaneo y los Cubaztecas]
TTITLE11=La Bamba [Orquesta Hector Grané]
TTITLE12=Dolor Y Pena [Beny Moré]
TTITLE13=Caricias Cubanas [Beny Moré]
TTITLE14=Marianao [Beny Moré]
TTITLE15=Mi Soncito [Celia Cruz]
TTITLE16=Me Voy Pa' El Pueblo [Celia Cruz]
TTITLE17=Pila Pilandera [Celia Cruz]
TTITLE18=Siboney [Arturo Chaite Y Su Orquesta]
EXTD=
EXTT0=
EXTT1=
EXTT2=
EXTT3=
EXTT4=
EXTT5=
EXTT6=
EXTT7=
EXTT8=
EXTT9=
EXTT10=
EXTT11=
EXTT12=
EXTT13=
EXTT14=
EXTT15=
EXTT16=
EXTT17=
EXTT18=
PLAYORDER=
